<svg width="218" height="32" viewBox="0 0 218 32" fill="none" xmlns="http://www.w3.org/2000/svg">
<path d="M10 0C10.2652 0 10.5196 0.105357 10.7071 0.292893C10.8946 0.48043 11 0.734784 11 1V4H13V1C13 0.734784 13.1054 0.48043 13.2929 0.292893C13.4804 0.105357 13.7348 0 14 0C14.2652 0 14.5196 0.105357 14.7071 0.292893C14.8946 0.48043 15 0.734784 15 1V4H17V1C17 0.734784 17.1054 0.48043 17.2929 0.292893C17.4804 0.105357 17.7348 0 18 0C18.2652 0 18.5196 0.105357 18.7071 0.292893C18.8946 0.48043 19 0.734784 19 1V4H21V1C21 0.734784 21.1054 0.48043 21.2929 0.292893C21.4804 0.105357 21.7348 0 22 0C22.2652 0 22.5196 0.105357 22.7071 0.292893C22.8946 0.48043 23 0.734784 23 1V4C24.3261 4 25.5979 4.52678 26.5355 5.46447C27.4732 6.40215 28 7.67392 28 9H31C31.2652 9 31.5196 9.10536 31.7071 9.29289C31.8946 9.48043 32 9.73478 32 10C32 10.2652 31.8946 10.5196 31.7071 10.7071C31.5196 10.8946 31.2652 11 31 11H28V13H31C31.2652 13 31.5196 13.1054 31.7071 13.2929C31.8946 13.4804 32 13.7348 32 14C32 14.2652 31.8946 14.5196 31.7071 14.7071C31.5196 14.8946 31.2652 15 31 15H28V17H31C31.2652 17 31.5196 17.1054 31.7071 17.2929C31.8946 17.4804 32 17.7348 32 18C32 18.2652 31.8946 18.5196 31.7071 18.7071C31.5196 18.8946 31.2652 19 31 19H28V21H31C31.2652 21 31.5196 21.1054 31.7071 21.2929C31.8946 21.4804 32 21.7348 32 22C32 22.2652 31.8946 22.5196 31.7071 22.7071C31.5196 22.8946 31.2652 23 31 23H28C28 24.3261 27.4732 25.5979 26.5355 26.5355C25.5979 27.4732 24.3261 28 23 28V31C23 31.2652 22.8946 31.5196 22.7071 31.7071C22.5196 31.8946 22.2652 32 22 32C21.7348 32 21.4804 31.8946 21.2929 31.7071C21.1054 31.5196 21 31.2652 21 31V28H19V31C19 31.2652 18.8946 31.5196 18.7071 31.7071C18.5196 31.8946 18.2652 32 18 32C17.7348 32 17.4804 31.8946 17.2929 31.7071C17.1054 31.5196 17 31.2652 17 31V28H15V31C15 31.2652 14.8946 31.5196 14.7071 31.7071C14.5196 31.8946 14.2652 32 14 32C13.7348 32 13.4804 31.8946 13.2929 31.7071C13.1054 31.5196 13 31.2652 13 31V28H11V31C11 31.2652 10.8946 31.5196 10.7071 31.7071C10.5196 31.8946 10.2652 32 10 32C9.73478 32 9.48043 31.8946 9.29289 31.7071C9.10536 31.5196 9 31.2652 9 31V28C7.67392 28 6.40215 27.4732 5.46447 26.5355C4.52678 25.5979 4 24.3261 4 23H1C0.734784 23 0.48043 22.8946 0.292893 22.7071C0.105357 22.5196 0 22.2652 0 22C0 21.7348 0.105357 21.4804 0.292893 21.2929C0.48043 21.1054 0.734784 21 1 21H4V19H1C0.734784 19 0.48043 18.8946 0.292893 18.7071C0.105357 18.5196 0 18.2652 0 18C0 17.7348 0.105357 17.4804 0.292893 17.2929C0.48043 17.1054 0.734784 17 1 17H4V15H1C0.734784 15 0.48043 14.8946 0.292893 14.7071C0.105357 14.5196 0 14.2652 0 14C0 13.7348 0.105357 13.4804 0.292893 13.2929C0.48043 13.1054 0.734784 13 1 13H4V11H1C0.734784 11 0.48043 10.8946 0.292893 10.7071C0.105357 10.5196 0 10.2652 0 10C0 9.73478 0.105357 9.48043 0.292893 9.29289C0.48043 9.10536 0.734784 9 1 9H4C4 7.67392 4.52678 6.40215 5.46447 5.46447C6.40215 4.52678 7.67392 4 9 4V1C9 0.734784 9.10536 0.48043 9.29289 0.292893C9.48043 0.105357 9.73478 0 10 0ZM9 6C8.20435 6 7.44129 6.31607 6.87868 6.87868C6.31607 7.44129 6 8.20435 6 9V23C6 23.7956 6.31607 24.5587 6.87868 25.1213C7.44129 25.6839 8.20435 26 9 26H23C23.7956 26 24.5587 25.6839 25.1213 25.1213C25.6839 24.5587 26 23.7956 26 23V9C26 8.20435 25.6839 7.44129 25.1213 6.87868C24.5587 6.31607 23.7956 6 23 6H9ZM10 13C10 12.2044 10.3161 11.4413 10.8787 10.8787C11.4413 10.3161 12.2044 10 13 10H19C19.7956 10 20.5587 10.3161 21.1213 10.8787C21.6839 11.4413 22 12.2044 22 13V19C22 19.7956 21.6839 20.5587 21.1213 21.1213C20.5587 21.6839 19.7956 22 19 22H13C12.2044 22 11.4413 21.6839 10.8787 21.1213C10.3161 20.5587 10 19.7956 10 19V13ZM13 12C12.7348 12 12.4804 12.1054 12.2929 12.2929C12.1054 12.4804 12 12.7348 12 13V19C12 19.2652 12.1054 19.5196 12.2929 19.7071C12.4804 19.8946 12.7348 20 13 20H19C19.2652 20 19.5196 19.8946 19.7071 19.7071C19.8946 19.5196 20 19.2652 20 19V13C20 12.7348 19.8946 12.4804 19.7071 12.2929C19.5196 12.1054 19.2652 12 19 12H13Z" fill="black"/>
<path d="M40.468 8.78H55.964V12.784H50.504V27.5H45.902V12.784H40.468V8.78ZM58.4037 27.5V8.78H63.0317V27.5H58.4037ZM60.8997 27.5V23.496H71.0917V27.5H60.8997ZM60.8997 20.012V16.216H69.5317V20.012H60.8997ZM60.8997 12.784V8.78H70.8577V12.784H60.8997ZM73.0334 18.14C73.0334 16.1813 73.4147 14.4827 74.1774 13.044C74.9574 11.588 76.1101 10.4613 77.6354 9.664C79.1781 8.86667 81.0934 8.468 83.3814 8.468C84.2654 8.468 85.0627 8.53733 85.7734 8.676C86.4841 8.81467 87.0474 8.97067 87.4634 9.144V13.122H87.1774C86.7614 12.8967 86.2501 12.7147 85.6434 12.576C85.0367 12.4373 84.3781 12.368 83.6674 12.368C82.2981 12.368 81.1714 12.602 80.2874 13.07C79.4207 13.538 78.7794 14.2053 78.3634 15.072C77.9474 15.9387 77.7394 16.9613 77.7394 18.14C77.7394 19.3187 77.9474 20.3413 78.3634 21.208C78.7794 22.0747 79.4207 22.742 80.2874 23.21C81.1714 23.678 82.2981 23.912 83.6674 23.912C84.3781 23.912 85.0367 23.8427 85.6434 23.704C86.2501 23.5653 86.7614 23.3833 87.1774 23.158H87.4634V27.136C87.0474 27.3093 86.4841 27.4653 85.7734 27.604C85.0627 27.7427 84.2654 27.812 83.3814 27.812C81.0934 27.812 79.1781 27.422 77.6354 26.642C76.1101 25.862 74.9574 24.7527 74.1774 23.314C73.4147 21.858 73.0334 20.1333 73.0334 18.14ZM102.217 27.5V8.78H106.819V27.5H102.217ZM90.7768 27.5V8.78H95.4048V27.5H90.7768ZM93.2728 20.116V16.112H104.349V20.116H93.2728ZM113.281 27.5V23.496H117.441C118.394 23.496 119.209 23.34 119.885 23.028C120.561 22.6987 121.115 22.248 121.549 21.676C121.982 21.104 122.303 20.4453 122.511 19.7C122.719 18.9547 122.823 18.1573 122.823 17.308C122.823 15.8693 122.441 14.76 121.679 13.98C120.933 13.1827 119.703 12.784 117.987 12.784H113.281V8.78H117.987C121.141 8.78 123.516 9.51667 125.111 10.99C126.723 12.446 127.529 14.5347 127.529 17.256C127.529 18.6253 127.329 19.9253 126.931 21.156C126.549 22.3867 125.943 23.4787 125.111 24.432C124.296 25.3853 123.239 26.1393 121.939 26.694C120.639 27.2313 119.061 27.5 117.207 27.5H113.281ZM110.785 27.5V8.78H115.413V27.5H110.785ZM130.589 27.5V8.78H135.217V27.5H130.589ZM133.085 27.5V23.496H143.277V27.5H133.085ZM133.085 20.012V16.216H141.717V20.012H133.085ZM133.085 12.784V8.78H143.043V12.784H133.085ZM145.219 18.14C145.219 16.1813 145.6 14.4827 146.363 13.044C147.143 11.588 148.296 10.4613 149.821 9.664C151.364 8.86667 153.279 8.468 155.567 8.468C156.451 8.468 157.248 8.53733 157.959 8.676C158.67 8.81467 159.233 8.97067 159.649 9.144V13.122H159.363C158.947 12.8967 158.436 12.7147 157.829 12.576C157.222 12.4373 156.564 12.368 155.853 12.368C154.484 12.368 153.357 12.602 152.473 13.07C151.606 13.538 150.965 14.2053 150.549 15.072C150.133 15.9387 149.925 16.9613 149.925 18.14C149.925 19.3187 150.133 20.3413 150.549 21.208C150.965 22.0747 151.606 22.742 152.473 23.21C153.357 23.678 154.484 23.912 155.853 23.912C156.564 23.912 157.222 23.8427 157.829 23.704C158.436 23.5653 158.947 23.3833 159.363 23.158H159.649V27.136C159.233 27.3093 158.67 27.4653 157.959 27.604C157.248 27.7427 156.451 27.812 155.567 27.812C153.279 27.812 151.364 27.422 149.821 26.642C148.296 25.862 147.143 24.7527 146.363 23.314C145.6 21.858 145.219 20.1333 145.219 18.14ZM161.774 18.14C161.774 16.2333 162.146 14.552 162.892 13.096C163.637 11.64 164.72 10.5047 166.142 9.69C167.563 8.87533 169.288 8.468 171.316 8.468C173.326 8.468 175.042 8.87533 176.464 9.69C177.902 10.5047 178.994 11.64 179.74 13.096C180.485 14.552 180.858 16.2333 180.858 18.14C180.858 20.0467 180.485 21.728 179.74 23.184C178.994 24.64 177.902 25.7753 176.464 26.59C175.042 27.4047 173.326 27.812 171.316 27.812C169.288 27.812 167.563 27.4133 166.142 26.616C164.72 25.8013 163.637 24.666 162.892 23.21C162.146 21.754 161.774 20.064 161.774 18.14ZM166.48 18.14C166.48 19.2667 166.653 20.272 167 21.156C167.364 22.0227 167.901 22.6987 168.612 23.184C169.34 23.6693 170.241 23.912 171.316 23.912C172.39 23.912 173.283 23.6693 173.994 23.184C174.704 22.6987 175.233 22.0227 175.58 21.156C175.944 20.272 176.126 19.2667 176.126 18.14C176.126 17.0133 175.944 16.0167 175.58 15.15C175.233 14.266 174.704 13.5813 173.994 13.096C173.283 12.6107 172.39 12.368 171.316 12.368C170.241 12.368 169.34 12.6107 168.612 13.096C167.901 13.5813 167.364 14.266 167 15.15C166.653 16.0167 166.48 17.0133 166.48 18.14ZM186.431 27.5V23.496H190.591C191.544 23.496 192.359 23.34 193.035 23.028C193.711 22.6987 194.266 22.248 194.699 21.676C195.132 21.104 195.453 20.4453 195.661 19.7C195.869 18.9547 195.973 18.1573 195.973 17.308C195.973 15.8693 195.592 14.76 194.829 13.98C194.084 13.1827 192.853 12.784 191.137 12.784H186.431V8.78H191.137C194.292 8.78 196.666 9.51667 198.261 10.99C199.873 12.446 200.679 14.5347 200.679 17.256C200.679 18.6253 200.48 19.9253 200.081 21.156C199.7 22.3867 199.093 23.4787 198.261 24.432C197.446 25.3853 196.389 26.1393 195.089 26.694C193.789 27.2313 192.212 27.5 190.357 27.5H186.431ZM183.935 27.5V8.78H188.563V27.5H183.935ZM203.74 27.5V8.78H208.368V27.5H203.74ZM206.236 27.5V23.496H216.428V27.5H206.236ZM206.236 20.012V16.216H214.868V20.012H206.236ZM206.236 12.784V8.78H216.194V12.784H206.236Z" fill="black"/>
</svg>
